<svg  viewBox="0 0 56 56" fill="none" xmlns="http://www.w3.org/2000/svg">
<path d="M39.6306 49.9567L38.8481 53.1553C36.5007 54.0818 34.6257 54.7869 33.2294 55.2717C31.8316 55.7581 30.2075 56 28.357 56C25.5153 56 23.3049 55.3039 21.7285 53.9211C20.152 52.5329 19.3635 50.7738 19.3635 48.6397C19.3635 47.8136 19.4207 46.9639 19.5397 46.0981C19.6596 45.2313 19.8504 44.2551 20.1113 43.164L23.0449 32.7808C23.3059 31.7866 23.5278 30.8445 23.7054 29.9536C23.8856 29.0683 23.9724 28.2537 23.9724 27.5204C23.9724 26.1944 23.6979 25.2669 23.1513 24.7455C22.6048 24.2255 21.5618 23.9615 20.0135 23.9615C19.2551 23.9615 18.4757 24.083 17.6812 24.3178C16.8832 24.5537 16.2011 24.7816 15.6284 24.9934L16.4129 21.7923C18.3346 21.0098 20.1716 20.3398 21.9287 19.7837C23.6859 19.2261 25.3461 18.9471 26.9166 18.9471C29.7387 18.9471 31.9164 19.6291 33.4457 20.9933C34.975 22.3584 35.7394 24.1281 35.7394 26.3089C35.7394 26.7601 35.6892 27.5551 35.5813 28.6914C35.4759 29.8302 35.2796 30.8736 34.9936 31.8227L32.0725 42.1642C31.8331 42.9949 31.6178 43.9445 31.4306 45.013C31.2374 46.0745 31.145 46.8856 31.145 47.4296C31.145 48.8028 31.4512 49.7404 32.065 50.2387C32.6833 50.7371 33.7484 50.9851 35.2611 50.9851C35.9712 50.9851 36.7793 50.8591 37.6772 50.6117C38.5726 50.3642 39.2255 50.1469 39.6306 49.9567ZM40.3714 6.5397C40.3714 8.3415 39.6923 9.88032 38.3276 11.1456C36.9665 12.4154 35.3263 13.0508 33.4076 13.0508C31.4828 13.0508 29.8386 12.4154 28.4619 11.1456C27.0877 9.87981 26.3991 8.3415 26.3991 6.5397C26.3991 4.74141 27.0877 3.20009 28.4619 1.91875C29.8361 0.639415 31.4833 0 33.4076 0C35.3258 0 36.9665 0.640921 38.3276 1.91875C39.6933 3.20009 40.3714 4.74191 40.3714 6.5397Z" fill="evenodd"/>
</svg>
