<svg  viewBox="0 0 56 56" fill="none" xmlns="http://www.w3.org/2000/svg">
<path d="M51.3337 13.3492H4.66699V10.636C4.66699 7.33676 7.33676 4.66699 10.636 4.66699H45.3647C48.6639 4.66699 51.3337 7.33676 51.3337 10.636V13.3492ZM51.3337 16.605V45.3647C51.3337 48.6639 48.6639 51.3337 45.3647 51.3337H10.636C7.33676 51.3337 4.66699 48.6639 4.66699 45.3647V16.605H51.3337ZM13.3492 23.6592C13.3492 24.5492 14.0871 25.2871 14.9771 25.2871H23.6592C24.5492 25.2871 25.2871 24.5492 25.2871 23.6592C25.2871 22.7693 24.5492 22.0313 23.6592 22.0313H14.9771C14.0871 22.0313 13.3492 22.7693 13.3492 23.6592ZM42.6515 41.0236C42.6515 40.1337 41.9135 39.3957 41.0236 39.3957H14.9771C14.0871 39.3957 13.3492 40.1337 13.3492 41.0236C13.3492 41.9135 14.0871 42.6515 14.9771 42.6515H41.0236C41.9135 42.6515 42.6515 41.9135 42.6515 41.0236ZM42.6515 32.3414C42.6515 31.4515 41.9135 30.7135 41.0236 30.7135H14.9771C14.0871 30.7135 13.3492 31.4515 13.3492 32.3414C13.3492 33.2313 14.0871 33.9693 14.9771 33.9693H41.0236C41.9135 33.9693 42.6515 33.2313 42.6515 32.3414Z" fill="evenodd"/>
</svg>
