<svg  viewBox="0 0 56 56" fill="none" xmlns="http://www.w3.org/2000/svg">
<path d="M50.3995 39.3282L40.4129 34.3349C40.1941 34.2269 39.9471 34.1903 39.7064 34.23C39.4657 34.2698 39.2436 34.384 39.0712 34.5566L35.2912 38.3366C31.097 37.1383 27.2774 34.8908 24.193 31.8064C21.1086 28.722 18.8612 24.9024 17.6629 20.7082L21.4429 16.9282C21.6154 16.7558 21.7296 16.5337 21.7694 16.293C21.8092 16.0524 21.7725 15.8053 21.6645 15.5866L16.6712 5.59989C16.5983 5.45612 16.4964 5.32902 16.3719 5.22661C16.2474 5.1242 16.103 5.04871 15.9479 5.00488C15.167 4.77827 14.3577 4.66434 13.5445 4.66655C11.1899 4.66655 8.93163 5.60195 7.26662 7.26696C5.60161 8.93197 4.66621 11.1902 4.66621 13.5449C4.65015 18.5077 5.62066 23.4243 7.52135 28.0088C9.42204 32.5933 12.215 36.7543 15.7379 40.2499C19.2339 43.7763 23.3964 46.5722 27.983 48.475C32.5697 50.3777 37.4889 51.3493 42.4545 51.3332C44.8092 51.3332 47.0675 50.3978 48.7325 48.7328C50.3975 47.0678 51.3329 44.8096 51.3329 42.4549C51.3341 41.638 51.2202 40.825 50.9945 40.0399C50.9493 39.8869 50.8732 39.7448 50.7708 39.6224C50.6685 39.5 50.5421 39.3999 50.3995 39.3282Z" fill="evenodd"/>
<path d="M39.4212 4.66655C37.1744 4.6602 34.9715 5.28946 33.0671 6.48168C31.1626 7.67389 29.6341 9.38045 28.6582 11.4043C27.6823 13.4281 27.2986 15.6867 27.5516 17.9193C27.8046 20.1519 28.6839 22.2674 30.0879 24.0215L27.8945 28.6882C27.7895 28.9093 27.7566 29.1578 27.8006 29.3986C27.8445 29.6394 27.9631 29.8602 28.1395 30.0299C28.3558 30.2383 28.6442 30.3554 28.9445 30.3566C29.136 30.3556 29.3244 30.3075 29.4929 30.2165L34.6145 27.5215C36.2348 28.2179 37.9895 28.5458 39.7519 28.4815C41.5143 28.4173 43.2405 27.9625 44.8058 27.15C46.371 26.3374 47.7363 25.1875 48.8031 23.7832C49.8699 22.3788 50.6116 20.7551 50.9746 19.0293C51.3375 17.3035 51.3127 15.5186 50.902 13.8035C50.4912 12.0884 49.7048 10.4859 48.5994 9.11176C47.494 7.73758 46.0973 6.626 44.5101 5.85727C42.9228 5.08854 41.1847 4.68185 39.4212 4.66655ZM34.5095 18.6666C34.1057 18.6666 33.711 18.5468 33.3753 18.3225C33.0395 18.0981 32.7778 17.7793 32.6233 17.4062C32.4688 17.0331 32.4283 16.6226 32.5071 16.2266C32.5859 15.8305 32.7803 15.4667 33.0659 15.1812C33.3514 14.8957 33.7152 14.7012 34.1112 14.6224C34.5073 14.5437 34.9178 14.5841 35.2909 14.7386C35.6639 14.8932 35.9828 15.1548 36.2071 15.4906C36.4315 15.8263 36.5512 16.2211 36.5512 16.6249C36.5512 17.1664 36.3361 17.6857 35.9532 18.0686C35.5703 18.4514 35.051 18.6666 34.5095 18.6666ZM39.4212 18.6666C39.0174 18.6666 38.6227 18.5468 38.2869 18.3225C37.9512 18.0981 37.6895 17.7793 37.535 17.4062C37.3804 17.0331 37.34 16.6226 37.4188 16.2266C37.4976 15.8305 37.692 15.4667 37.9775 15.1812C38.2631 14.8957 38.6269 14.7012 39.0229 14.6224C39.4189 14.5437 39.8295 14.5841 40.2025 14.7386C40.5756 14.8932 40.8945 15.1548 41.1188 15.4906C41.3431 15.8263 41.4629 16.2211 41.4629 16.6249C41.4629 17.1664 41.2478 17.6857 40.8649 18.0686C40.482 18.4514 39.9627 18.6666 39.4212 18.6666ZM44.3329 18.6666C43.9291 18.6666 43.5343 18.5468 43.1986 18.3225C42.8628 18.0981 42.6012 17.7793 42.4466 17.4062C42.2921 17.0331 42.2517 16.6226 42.3304 16.2266C42.4092 15.8305 42.6037 15.4667 42.8892 15.1812C43.1747 14.8957 43.5385 14.7012 43.9346 14.6224C44.3306 14.5437 44.7411 14.5841 45.1142 14.7386C45.4873 14.8932 45.8061 15.1548 46.0305 15.4906C46.2548 15.8263 46.3745 16.2211 46.3745 16.6249C46.3745 17.1664 46.1594 17.6857 45.7766 18.0686C45.3937 18.4514 44.8744 18.6666 44.3329 18.6666Z" fill="evenodd"/>
</svg>
