<svg  viewBox="0 0 56 56" fill="none" xmlns="http://www.w3.org/2000/svg">
<path d="M50.0796 24.9643C50.0785 24.9632 50.0775 24.9621 50.0764 24.961L31.0382 5.92546C30.2267 5.11369 29.1478 4.6665 28.0001 4.6665C26.8525 4.6665 25.7736 5.11333 24.9617 5.9251L5.93347 24.9511C5.92706 24.9575 5.92065 24.9643 5.91424 24.9707C4.24781 26.6465 4.25066 29.3656 5.92243 31.0372C6.68621 31.8013 7.69497 32.2438 8.77352 32.2901C8.81731 32.2944 8.86147 32.2965 8.90598 32.2965H9.66477V46.3055C9.66477 49.0777 11.9205 51.3332 14.6936 51.3332H22.142C22.8969 51.3332 23.5093 50.7211 23.5093 49.966V38.9829C23.5093 37.7179 24.5384 36.689 25.8035 36.689H30.1968C31.4619 36.689 32.4909 37.7179 32.4909 38.9829V49.966C32.4909 50.7211 33.103 51.3332 33.8583 51.3332H41.3066C44.0798 51.3332 46.3355 49.0777 46.3355 46.3055V32.2965H47.0391C48.1864 32.2965 49.2653 31.8497 50.0775 31.0379C51.751 29.3635 51.7517 26.6398 50.0796 24.9643Z" fill="evenodd"/>
</svg>
