<svg  viewBox="0 0 56 56" fill="none" xmlns="http://www.w3.org/2000/svg">
<path d="M30.3736 9.87799C30.3736 7.57159 30.9707 5.40236 32.0175 3.51542C30.7684 3.74161 29.5602 4.14105 28.4064 4.71133C26.5028 5.65239 24.3189 5.6525 22.415 4.71133C20.5524 3.79061 18.5484 3.31428 16.4587 3.29547C16.4171 3.29514 16.3757 3.29492 16.3343 3.29492C12.7226 3.29492 9.31384 4.71078 6.72384 7.28984C4.03967 9.96275 2.5712 13.5216 2.58903 17.3108C2.60412 20.4798 4.23293 23.631 5.80815 26.6784C6.9217 28.8326 8.07298 31.0601 8.50972 33.0829C9.0089 35.3954 9.43076 37.6294 9.83862 39.7897C10.6578 44.1278 11.3653 47.8743 12.4018 50.6657C12.8917 51.9851 14.3827 56 18.1451 56C19.3078 56 20.3641 55.5555 21.1999 54.7145C24.0574 51.8394 24.0115 44.4324 23.9712 37.8973C23.9667 37.1843 23.9624 36.4901 23.9624 35.8255C23.9624 35.0268 24.6121 34.3771 25.4108 34.3771C26.2094 34.3771 26.8591 35.0268 26.8591 35.8255C26.8591 36.4901 26.8549 37.1843 26.8504 37.8973C26.81 44.4324 26.7642 51.8393 29.6216 54.7144C30.4574 55.5554 31.5138 55.9999 32.6764 55.9999C36.4387 55.9999 37.9297 51.985 38.4197 50.6656C39.4563 47.8742 40.1636 44.1278 40.9829 39.7896C41.3908 37.6293 41.8127 35.3953 42.3118 33.0828C42.7486 31.0599 43.9 28.8325 45.0134 26.6783C45.7112 25.3282 46.4193 23.9577 46.9932 22.5745C45.89 22.8755 44.7301 23.037 43.5329 23.037C36.2767 23.0371 30.3736 17.1339 30.3736 9.87799Z" fill="evenodd"/>
<path d="M43.5328 0C38.086 0 33.6548 4.43122 33.6548 9.87799C33.6548 15.3247 38.086 19.756 43.5328 19.756C48.9796 19.756 53.4108 15.3247 53.4108 9.87799C53.4108 4.43122 48.9796 0 43.5328 0ZM46.2739 11.5186H45.1733V12.6193C45.1733 13.5253 44.4387 14.2599 43.5327 14.2599C42.6266 14.2599 41.8921 13.5253 41.8921 12.6193V11.5255L40.7914 11.5186C39.8854 11.5186 39.1508 10.784 39.1508 9.87799C39.1508 8.97192 39.8854 8.23736 40.7914 8.23736H41.8921V7.13672C41.8921 6.23066 42.6266 5.49609 43.5327 5.49609C44.4387 5.49609 45.1733 6.23066 45.1733 7.13672V8.23736H46.2739C47.18 8.23736 47.9146 8.97192 47.9146 9.87799C47.9146 10.784 47.1801 11.5186 46.2739 11.5186Z" fill="evenodd"/>
</svg>
