<svg  viewBox="0 0 56 56" fill="none" xmlns="http://www.w3.org/2000/svg">
<path d="M44.5971 29.675H40.9881C41.356 30.7436 41.557 31.8968 41.557 33.0987V47.5703C41.557 48.0715 41.4748 48.5525 41.3252 48.9998H47.2917C49.5205 48.9998 51.3337 47.076 51.3337 44.7114V36.8222C51.3337 32.8813 48.3117 29.675 44.5971 29.675Z" fill="evenodd"/>
<path d="M14.4438 33.0988C14.4438 31.8968 14.6447 30.7437 15.0126 29.6751H11.4036C7.68903 29.6751 4.66699 32.8814 4.66699 36.8224V44.7116C4.66699 47.0762 6.48016 49 8.70895 49H14.6756C14.526 48.5525 14.4438 48.0716 14.4438 47.5704V33.0988Z" fill="evenodd"/>
<path d="M32.1257 25.9514H23.875C20.1604 25.9514 17.1384 29.1577 17.1384 33.0988V47.5704C17.1384 48.3598 17.7416 48.9999 18.4857 48.9999H37.515C38.2591 48.9999 38.8623 48.3599 38.8623 47.5704V33.0988C38.8623 29.1577 35.8403 25.9514 32.1257 25.9514Z" fill="evenodd"/>
<path d="M28.0004 7C23.5331 7 19.8988 10.8559 19.8988 15.5957C19.8988 18.8106 21.5712 21.6184 24.0411 23.0925C25.2126 23.7917 26.5632 24.1912 28.0004 24.1912C29.4376 24.1912 30.7882 23.7917 31.9597 23.0925C34.4296 21.6184 36.102 18.8105 36.102 15.5957C36.102 10.856 32.4676 7 28.0004 7Z" fill="evenodd"/>
<path d="M13.7741 15.0118C10.4332 15.0118 7.71519 17.8955 7.71519 21.4401C7.71519 24.9848 10.4332 27.8685 13.7741 27.8685C14.6216 27.8685 15.4286 27.6822 16.1617 27.3474C17.4292 26.7685 18.4742 25.7436 19.1209 24.4599C19.5748 23.5589 19.833 22.531 19.833 21.4401C19.833 17.8956 17.1151 15.0118 13.7741 15.0118Z" fill="evenodd"/>
<path d="M42.2266 15.0118C38.8857 15.0118 36.1677 17.8955 36.1677 21.4401C36.1677 22.5311 36.4259 23.559 36.8798 24.4599C37.5265 25.7437 38.5716 26.7686 39.8391 27.3474C40.5721 27.6822 41.3791 27.8685 42.2266 27.8685C45.5676 27.8685 48.2856 24.9848 48.2856 21.4401C48.2856 17.8955 45.5676 15.0118 42.2266 15.0118Z" fill="evenodd"/>
</svg>
