<svg width="32" height="32" viewBox="0 0 32 32" fill="none" xmlns="http://www.w3.org/2000/svg">
<g clip-path="url(#clip0_239_4596)">
<path d="M3.04906 20.0919C2.64993 20.6042 2.96591 20.9828 3.17379 21.1081H0.263493C0.120288 21.0895 -0.119004 20.9661 0.0694731 20.6209C0.25795 20.2756 2.71645 15.4377 3.92214 13.0618C4.02377 12.9133 4.1023 12.5356 3.60339 12.2126H5.52975L4.62894 16.5142L4.00531 17.7392H4.37949L4.00531 19.2984H4.71209L5.01698 17.7392H5.47432L5.26644 16.5142L6.08409 12.2126H7.65011C7.96054 12.2126 8.07511 12.621 8.09359 12.8252L8.74494 20.6209L9.28542 21.1638H5.69605C5.35236 21.1638 5.26644 20.8761 5.26644 20.7322V19.2984H4.71209H4.00531H3.5064L3.04906 20.0919Z" fill="#0E56AB"/>
<path d="M10.0452 21.1505H13.3713C12.9832 20.8053 12.9878 20.422 13.0387 20.2735L13.8979 16.6541C14.0309 16.2866 14.3321 16.1761 14.4661 16.1669C14.6925 16.1808 15.2394 16.2003 15.6164 16.1669C15.9933 16.1334 16.2077 15.8374 16.2677 15.6935L16.6696 14.1205H15.5332C14.99 14.1984 14.6416 14.784 14.5354 15.0671H14.1196C14.4301 14.3432 14.0827 14.1901 13.8702 14.204H10.849C11.2371 14.4267 11.2417 14.8258 11.1955 14.9975C10.789 16.784 9.95651 20.4294 9.8789 20.719C9.8013 21.0085 9.95744 21.1273 10.0452 21.1505Z" fill="#0E56AB"/>
<path d="M19.9854 12.1986H24.4062C24.3065 13.7912 23.8473 14.115 23.6301 14.0779H21.6899C21.2021 14.1002 20.9878 14.5976 20.9416 14.8436L20.1655 18.0036C19.8662 18.928 20.4011 19.2055 20.706 19.2287H22.7848L23.4223 18.8946C23.1451 20.966 22.5584 21.224 22.2997 21.0941H18.1976C16.4237 21.0606 16.3868 19.4096 16.59 18.5883C16.7471 17.7484 17.1748 15.6872 17.6294 14.1615C18.084 12.6357 19.3894 12.2172 19.9854 12.1986Z" fill="#0E56AB"/>
<path d="M28.119 16.7241C28.0303 16.8911 27.9249 17.4712 27.8834 17.7403C27.3955 17.8628 27.2366 18.2646 27.2182 18.4503C26.8523 19.486 27.2967 19.6614 27.5646 19.6196C27.7088 20.4215 26.9502 20.9653 26.553 21.137H25.0146C24.5989 21.2252 23.8422 20.9282 24.1416 19.0349C24.4409 17.1417 25.5967 16.7055 26.1372 16.7241H28.119Z" fill="#0E56AB"/>
<path d="M30.9334 14.2159H26.3878C26.3185 14.4804 26.166 15.0902 26.1106 15.4131C26.0551 15.7361 26.3185 15.7797 26.457 15.7612H28.3695C28.6578 15.7612 28.7391 16.1138 28.7437 16.2902L27.8568 20.6613C27.8568 21.0734 28.0877 21.1393 28.2032 21.1207H31.2521C30.8419 21.1207 30.8317 20.5731 30.8779 20.2994C31.2521 18.9722 32.0005 16.112 32.0005 15.2879C32.0005 14.4637 31.2891 14.2299 30.9334 14.2159Z" fill="#0E56AB"/>
</g>
<defs>
<clipPath id="clip0_239_4596">
<rect width="32" height="32" fill="white"/>
</clipPath>
</defs>
</svg>
