<svg width="32" height="32" viewBox="0 0 32 32" fill="none" xmlns="http://www.w3.org/2000/svg">
<path d="M19.2965 9.90002H12.6826V22.098H19.2965V9.90002Z" fill="#FF5F00"/>
<path d="M13.1035 15.9998C13.1025 14.825 13.3619 13.6654 13.862 12.6087C14.3622 11.5521 15.0901 10.626 15.9905 9.90076C14.8755 9.00123 13.5363 8.44183 12.1261 8.28649C10.7159 8.13115 9.29157 8.38614 8.0159 9.02231C6.74024 9.65849 5.6647 10.6502 4.91224 11.884C4.15977 13.1179 3.76074 14.5441 3.76074 15.9998C3.76074 17.4554 4.15977 18.8816 4.91224 20.1155C5.6647 21.3493 6.74024 22.341 8.0159 22.9772C9.29157 23.6134 10.7159 23.8683 12.1261 23.713C13.5363 23.5577 14.8755 22.9983 15.9905 22.0987C15.0901 21.3735 14.3622 20.4474 13.8621 19.3908C13.3619 18.3341 13.1025 17.1745 13.1035 15.9998Z" fill="#EB001B"/>
<path d="M28.2196 15.9997C28.2197 17.4553 27.8207 18.8816 27.0683 20.1154C26.3159 21.3493 25.2404 22.341 23.9647 22.9772C22.6891 23.6133 21.2648 23.8683 19.8546 23.713C18.4444 23.5577 17.1053 22.9983 15.9902 22.0987C16.8899 21.3727 17.6172 20.4465 18.1173 19.3901C18.6174 18.3336 18.8772 17.1743 18.8772 15.9997C18.8772 14.8252 18.6174 13.6659 18.1173 12.6094C17.6172 11.5529 16.8899 10.6268 15.9902 9.90076C17.1053 9.00123 18.4444 8.44183 19.8546 8.28649C21.2648 8.13115 22.6891 8.38615 23.9647 9.02233C25.2404 9.65851 26.3159 10.6502 27.0683 11.8841C27.8207 13.1179 28.2197 14.5442 28.2196 15.9997Z" fill="#F79E1B"/>
<path d="M27.4984 20.8073V20.5576H27.5966V20.5067H27.3467V20.5576H27.4448V20.8073H27.4984ZM27.9836 20.8073V20.5062H27.907L27.8189 20.7133L27.7307 20.5062H27.6541V20.8073H27.7082V20.5802L27.7908 20.776H27.8469L27.9295 20.5797V20.8073H27.9836Z" fill="#F79E1B"/>
</svg>
