<svg width="25" height="24" viewBox="0 0 25 24" fill="none" xmlns="http://www.w3.org/2000/svg">
<path d="M14.8998 0H10.0997C5.46772 0 1.69971 3.76802 1.69971 8.40003V12C1.69971 15.2551 3.57471 18.2041 6.49973 19.5931V23.6041C6.49973 23.9521 6.93473 24.1321 7.18073 23.8861L10.6667 20.4031H14.8998C19.5318 20.4031 23.2998 16.6351 23.2998 12V8.40003C23.2998 3.76802 19.5318 0 14.8998 0ZM18.0438 15.7444L16.8288 16.9324C15.5508 18.1834 12.2148 16.7554 9.27474 13.7524C6.33473 10.7463 5.04472 7.38033 6.25973 6.12932L7.47473 4.94132C7.92173 4.50332 8.68074 4.51232 9.18174 4.95932L10.9337 6.75033C11.5577 7.38933 11.2937 8.46033 10.4687 8.70634C9.89874 8.88934 9.51174 9.51634 9.69474 10.0863C9.99774 11.4183 11.6867 13.0834 12.9468 13.4134C13.5138 13.5454 14.1498 13.2364 14.3478 12.6694C14.6088 11.8503 15.6858 11.6073 16.3128 12.2494L18.0618 14.0374C18.4998 14.4841 18.4938 15.2434 18.0438 15.7444ZM13.5918 5.70002C13.4718 5.70002 13.3518 5.70602 13.2348 5.72102C13.0158 5.74502 12.8178 5.58602 12.7938 5.36702C12.7698 5.14802 12.9288 4.95002 13.1478 4.92602C13.2948 4.90802 13.4448 4.90202 13.5918 4.90202C15.7968 4.90202 17.5908 6.69603 17.5908 8.90104C17.5908 9.04804 17.5848 9.19804 17.5668 9.34504C17.5428 9.56104 17.3418 9.72304 17.1258 9.69904C16.9098 9.67504 16.7478 9.47404 16.7718 9.25804C16.7838 9.14104 16.7928 9.02104 16.7928 8.90104C16.7928 7.13703 15.3558 5.70002 13.5918 5.70002ZM15.9918 8.90104C15.9918 9.12004 15.8088 9.30004 15.5898 9.30004C15.3738 9.30004 15.1908 9.12004 15.1908 8.90104C15.1908 8.01903 14.4738 7.30203 13.5918 7.30203C13.3698 7.30203 13.1898 7.12203 13.1898 6.90003C13.1898 6.68103 13.3698 6.50103 13.5918 6.50103C14.9148 6.50103 15.9918 7.57803 15.9918 8.90104ZM19.0428 10.194C18.9918 10.41 18.7608 10.545 18.5478 10.488C18.3408 10.431 18.2148 10.215 18.2628 10.008C18.3498 9.64804 18.3918 9.27604 18.3918 8.90104C18.3918 6.25503 16.2378 4.10102 13.5918 4.10102C13.4688 4.10102 13.3428 4.10402 13.2198 4.11602C13.0008 4.13102 12.8088 3.96602 12.7908 3.74702C12.7758 3.52501 12.9408 3.33301 13.1598 3.31801C13.3038 3.30601 13.4478 3.30001 13.5918 3.30001C16.6788 3.30001 19.1928 5.81402 19.1928 8.90104C19.1928 9.33604 19.1418 9.77104 19.0428 10.194Z" fill="#665CAC"/>
</svg>
