<svg width="32" height="32" viewBox="0 0 32 32" fill="none" xmlns="http://www.w3.org/2000/svg">
<g clip-path="url(#clip0_239_10628)">
<path d="M11.7334 20.5968L13.3588 11.454H15.8985L14.3239 20.5968H11.7334Z" fill="#3C58BF"/>
<path d="M11.7334 20.5968L13.8159 11.454H15.8985L14.3239 20.5968H11.7334Z" fill="#293688"/>
<path d="M23.5175 11.5555C23.0096 11.3523 22.1969 11.1492 21.181 11.1492C18.6413 11.1492 16.8128 12.419 16.8128 14.2476C16.8128 15.619 18.0826 16.3301 19.0985 16.7873C20.1143 17.2444 20.4191 17.5492 20.4191 17.9555C20.4191 18.565 19.6064 18.8698 18.8953 18.8698C17.8794 18.8698 17.3207 18.7174 16.4572 18.3619L16.1016 18.2095L15.7461 20.292C16.3556 20.546 17.4731 20.8 18.6413 20.8C21.3334 20.8 23.1112 19.5301 23.1112 17.6C23.1112 16.5333 22.4509 15.7206 20.927 15.0603C20.0128 14.6031 19.454 14.3492 19.454 13.892C19.454 13.4857 19.9112 13.0793 20.927 13.0793C21.7905 13.0793 22.4001 13.2317 22.8572 13.4349L23.1112 13.5365L23.5175 11.5555Z" fill="#3C58BF"/>
<path d="M23.5175 11.5555C23.0096 11.3523 22.1969 11.1492 21.181 11.1492C18.6413 11.1492 17.2699 12.419 17.2699 14.2476C17.2699 15.619 18.0826 16.3301 19.0985 16.7873C20.1143 17.2444 20.4191 17.5492 20.4191 17.9555C20.4191 18.565 19.6064 18.8698 18.8953 18.8698C17.8794 18.8698 17.3207 18.7174 16.4572 18.3619L16.1016 18.2095L15.7461 20.292C16.3556 20.546 17.4731 20.8 18.6413 20.8C21.3334 20.8 23.1112 19.5301 23.1112 17.6C23.1112 16.5333 22.4509 15.7206 20.927 15.0603C20.0128 14.6031 19.454 14.3492 19.454 13.892C19.454 13.4857 19.9112 13.0793 20.927 13.0793C21.7905 13.0793 22.4001 13.2317 22.8572 13.4349L23.1112 13.5365L23.5175 11.5555Z" fill="#293688"/>
<path d="M27.8858 11.454C27.2763 11.454 26.8191 11.5048 26.5651 12.1143L22.7556 20.5968H25.4985L26.0064 19.073H29.2572L29.562 20.5968H32.0001L29.8667 11.454H27.8858ZM26.7175 17.5492C26.8699 17.0921 27.7334 14.8572 27.7334 14.8572C27.7334 14.8572 27.9366 14.2984 28.0889 13.9429L28.2413 14.8064C28.2413 14.8064 28.7493 17.0921 28.8509 17.6H26.7175V17.5492Z" fill="#3C58BF"/>
<path d="M28.4953 11.454C27.8858 11.454 27.4286 11.5048 27.1747 12.1143L22.7556 20.5968H25.4985L26.0064 19.073H29.2572L29.562 20.5968H32.0001L29.8667 11.454H28.4953ZM26.7175 17.5492C26.9207 17.0413 27.7334 14.8572 27.7334 14.8572C27.7334 14.8572 27.9366 14.2984 28.0889 13.9429L28.2413 14.8064C28.2413 14.8064 28.7493 17.0921 28.8509 17.6H26.7175V17.5492Z" fill="#293688"/>
<path d="M7.06026 17.854L6.80629 16.5333C6.34915 15.0095 4.87613 13.3333 3.25073 12.5206L5.53645 20.6476H8.2793L12.3936 11.5048H9.65073L7.06026 17.854Z" fill="#3C58BF"/>
<path d="M7.06026 17.854L6.80629 16.5333C6.34915 15.0095 4.87613 13.3333 3.25073 12.5206L5.53645 20.6476H8.2793L12.3936 11.5048H10.1587L7.06026 17.854Z" fill="#293688"/>
<path d="M0 11.454L0.457143 11.5556C3.70794 12.3175 5.94286 14.2476 6.80635 16.5333L5.89206 12.2159C5.73968 11.6064 5.28254 11.454 4.72381 11.454H0Z" fill="#FFBC00"/>
<path d="M0 11.454C3.25079 12.2159 5.94286 14.1968 6.80635 16.4826L5.94286 12.8762C5.79048 12.2667 5.28254 11.9111 4.72381 11.9111L0 11.454Z" fill="#F7981D"/>
<path d="M0 11.454C3.25079 12.2159 5.94286 14.1968 6.80635 16.4826L6.19683 14.5016C6.04444 13.8921 5.84127 13.2826 5.13016 13.0286L0 11.454Z" fill="#ED7C00"/>
<path d="M9.59993 17.5492L7.87294 15.8222L7.06024 17.7524L6.85707 16.4825C6.39993 14.9587 4.92691 13.2825 3.30151 12.4698L5.58723 20.5968H8.33008L9.59993 17.5492Z" fill="#051244"/>
<path d="M14.3236 20.5969L12.1395 18.3619L11.7332 20.5969H14.3236Z" fill="#051244"/>
<path d="M20.1649 17.4476C20.3681 17.6508 20.4697 17.8032 20.4189 18.0064C20.4189 18.6159 19.6062 18.9206 18.8951 18.9206C17.8792 18.9206 17.3205 18.7683 16.457 18.4127L16.1014 18.2603L15.7458 20.3429C16.3554 20.5968 17.4728 20.8508 18.6411 20.8508C20.2665 20.8508 21.5871 20.3937 22.349 19.581L20.1649 17.4476Z" fill="#051244"/>
<path d="M23.1111 20.5968H25.4984L26.0063 19.073H29.2571L29.5619 20.5968H32L31.1365 16.8889L28.0889 13.9429L28.2412 14.7556C28.2412 14.7556 28.7492 17.0413 28.8508 17.5492H26.7174C26.9206 17.0413 27.7333 14.8572 27.7333 14.8572C27.7333 14.8572 27.9365 14.2984 28.0889 13.9429" fill="#051244"/>
</g>
<defs>
<clipPath id="clip0_239_10628">
<rect width="32" height="32" fill="white"/>
</clipPath>
</defs>
</svg>
