<svg width="25" height="24" viewBox="0 0 25 24" fill="none" xmlns="http://www.w3.org/2000/svg">
<g clip-path="url(#clip0_239_11322)">
<path d="M12.503 0H12.497C5.8805 0 0.5 5.382 0.5 12C0.5 14.625 1.346 17.058 2.7845 19.0335L1.289 23.4915L5.9015 22.017C7.799 23.274 10.0625 24 12.503 24C19.1195 24 24.5 18.6165 24.5 12C24.5 5.3835 19.1195 0 12.503 0Z" fill="#4CAF50"/>
<path d="M19.4856 16.9455C19.1961 17.763 18.0471 18.441 17.1306 18.639C16.5036 18.7725 15.6846 18.879 12.9276 17.736C9.40108 16.275 7.13008 12.6915 6.95308 12.459C6.78358 12.2265 5.52808 10.5615 5.52808 8.83953C5.52808 7.11753 6.40258 6.27903 6.75508 5.91903C7.04458 5.62353 7.52308 5.48853 7.98208 5.48853C8.13058 5.48853 8.26408 5.49603 8.38408 5.50203C8.73658 5.51703 8.91358 5.53803 9.14608 6.09453C9.43558 6.79203 10.1406 8.51403 10.2246 8.69103C10.3101 8.86803 10.3956 9.10803 10.2756 9.34053C10.1631 9.58053 10.0641 9.68703 9.88708 9.89103C9.71008 10.095 9.54208 10.251 9.36508 10.47C9.20308 10.6605 9.02008 10.8645 9.22408 11.217C9.42808 11.562 10.1331 12.7125 11.1711 13.6365C12.5106 14.829 13.5966 15.21 13.9851 15.372C14.2746 15.492 14.6196 15.4635 14.8311 15.2385C15.0996 14.949 15.4311 14.469 15.7686 13.9965C16.0086 13.6575 16.3116 13.6155 16.6296 13.7355C16.9536 13.848 18.6681 14.6955 19.0206 14.871C19.3731 15.048 19.6056 15.132 19.6911 15.2805C19.7751 15.429 19.7751 16.1265 19.4856 16.9455Z" fill="#FAFAFA"/>
</g>
<defs>
<clipPath id="clip0_239_11322">
<rect width="24" height="24" fill="white" transform="translate(0.5)"/>
</clipPath>
</defs>
</svg>
