<svg width="640" height="732" viewBox="0 0 640 732" fill="none" xmlns="http://www.w3.org/2000/svg">
<path fill-rule="evenodd" clip-rule="evenodd" d="M108.299 577.941H60.0798V593.793H105.993C113.221 593.793 118.071 595.031 120.615 597.482C123.159 599.958 124.42 604.528 124.42 611.239V621.379C124.42 628.043 123.159 632.637 120.615 635.088C118.071 637.54 113.221 638.777 105.993 638.777H60.5078C53.3033 638.777 48.4292 637.54 45.9089 635.088C43.3648 632.637 42.1045 628.043 42.1045 621.379V619.356L57.2267 616.214V624.925H109.298V608.074H63.3611C56.2042 608.074 51.3774 606.836 48.8571 604.385C46.3607 601.933 45.1004 597.363 45.1004 590.675V582.511C45.1004 575.823 46.3607 571.253 48.8571 568.778C51.3774 566.327 56.2042 565.089 63.3611 565.089H105.16C112.079 565.089 116.859 566.279 119.474 568.635C122.113 571.015 123.421 575.204 123.421 581.25V582.797L108.299 586.367V577.941ZM159.942 638.777V565.089H177.062V593.65H230.56V565.089H247.822V638.777H230.56V607.074H177.062V638.777H159.942ZM304.292 609.359H336.581L320.674 579.37L304.292 609.359ZM271.337 638.777L313.018 565.089H329.543L371.771 638.777H352.535L343.69 622.64H296.992L288.409 638.777H271.337ZM395.31 638.777V565.089H409.148L443.862 609.645L477.744 565.089H491.463V638.777H475.628V593.246C475.628 592.365 475.675 591.246 475.794 589.914C475.913 588.557 476.079 587.057 476.246 585.368C475.319 587.272 474.51 588.842 473.821 590.08C473.107 591.318 472.489 592.318 471.942 593.103L444.266 629.924H440.866L413.118 592.984C412.096 591.58 411.216 590.271 410.503 589.033C409.789 587.795 409.195 586.605 408.72 585.439C408.862 586.986 408.981 588.367 409.053 589.628C409.124 590.889 409.148 592.079 409.148 593.246V638.777H395.31ZM591.302 577.941H543.082V593.793H588.996C596.224 593.793 601.074 595.031 603.618 597.482C606.162 599.958 607.423 604.528 607.423 611.239V621.379C607.423 628.043 606.162 632.637 603.618 635.088C601.074 637.54 596.224 638.777 588.996 638.777H543.51C536.306 638.777 531.432 637.54 528.911 635.088C526.367 632.637 525.107 628.043 525.107 621.379V619.356L540.229 616.214V624.925H592.3V608.074H546.364C539.207 608.074 534.38 606.836 531.86 604.385C529.363 601.933 528.103 597.363 528.103 590.675V582.511C528.103 575.823 529.363 571.253 531.86 568.778C534.38 566.327 539.207 565.089 546.364 565.089H588.163C595.082 565.089 599.862 566.279 602.477 568.635C605.116 571.015 606.424 575.204 606.424 581.25V582.797L591.302 586.367V577.941Z" fill="#0078F0"/>
<path fill-rule="evenodd" clip-rule="evenodd" d="M45.8185 688.354H50.562C53.1536 688.354 54.9667 687.979 56.001 687.223C57.0354 686.467 57.5525 685.194 57.5525 683.403C57.5525 681.85 57.1245 680.69 56.2627 679.928C55.4007 679.166 54.0811 678.785 52.3039 678.785H45.8185V688.354ZM42.1094 691.174V676.072H52.2681C55.1867 676.072 57.4277 676.721 58.9911 678.018C60.5543 679.315 61.333 681.166 61.333 683.57C61.333 686.105 60.5067 688.009 58.8484 689.276C57.1959 690.543 54.6934 691.174 51.3466 691.174H42.1094Z" fill="#005CB8"/>
<path fill-rule="evenodd" clip-rule="evenodd" d="M89.5288 691.174V676.072H105.721V678.75H93.2379V682.034H100.514V684.641H93.2379V688.354H105.899V691.174H89.5288Z" fill="#005CB8"/>
<path fill-rule="evenodd" clip-rule="evenodd" d="M133.967 691.174V676.072H136.494L149.303 686.099V676.072H152.62V691.174H150.082L137.32 680.987V691.174H133.967Z" fill="#005CB8"/>
<path fill-rule="evenodd" clip-rule="evenodd" d="M191.176 678.785V691.174H187.503V678.785H180.227V676.072H198.488V678.785H191.176Z" fill="#005CB8"/>
<path fill-rule="evenodd" clip-rule="evenodd" d="M223.66 691.174L232.611 676.072H236.149L245.237 691.174H241.112L239.21 687.854H229.235L227.333 691.174H223.66ZM230.799 685.105H237.712L234.199 678.809L230.799 685.105Z" fill="#005CB8"/>
<path fill-rule="evenodd" clip-rule="evenodd" d="M271.758 691.174V676.072H275.467V688.354H287.308V691.174H271.758Z" fill="#005CB8"/>
<path fill-rule="evenodd" clip-rule="evenodd" d="M400.556 678.857H390.641V688.282H400.556V685.069L404.266 685.819V687.604C404.266 688.972 403.992 689.913 403.445 690.418C402.898 690.924 401.858 691.174 400.313 691.174H390.885C389.363 691.174 388.329 690.924 387.788 690.424C387.241 689.924 386.968 688.984 386.968 687.604V679.642C386.968 678.262 387.235 677.328 387.776 676.822C388.317 676.322 389.351 676.072 390.885 676.072H400.313C401.87 676.072 402.916 676.322 403.457 676.822C403.998 677.328 404.266 678.262 404.266 679.642V681.1L400.556 681.642V678.857Z" fill="#005CB8"/>
<path fill-rule="evenodd" clip-rule="evenodd" d="M433.025 691.174V676.072H436.734V688.354H448.575V691.174H433.025Z" fill="#005CB8"/>
<path fill-rule="evenodd" clip-rule="evenodd" d="M475.405 691.174V676.072H479.079V691.174H475.405Z" fill="#005CB8"/>
<path fill-rule="evenodd" clip-rule="evenodd" d="M508.621 691.174V676.072H511.147L523.957 686.099V676.072H527.274V691.174H524.735L511.973 680.987V691.174H508.621Z" fill="#005CB8"/>
<path fill-rule="evenodd" clip-rule="evenodd" d="M556.726 691.174V676.072H560.4V691.174H556.726Z" fill="#005CB8"/>
<path fill-rule="evenodd" clip-rule="evenodd" d="M603.059 678.857H593.144V688.282H603.059V685.069L606.768 685.819V687.604C606.768 688.972 606.494 689.913 605.948 690.418C605.401 690.924 604.361 691.174 602.815 691.174H593.387C591.866 691.174 590.831 690.924 590.291 690.424C589.743 689.924 589.47 688.984 589.47 687.604V679.642C589.47 678.262 589.738 677.328 590.279 676.822C590.82 676.322 591.854 676.072 593.387 676.072H602.815C604.373 676.072 605.418 676.322 605.96 676.822C606.5 677.328 606.768 678.262 606.768 679.642V681.1L603.059 681.642V678.857Z" fill="#005CB8"/>
<path fill-rule="evenodd" clip-rule="evenodd" d="M437.69 81.899L461.858 140.258L320.977 81.899L420.51 40.6232L437.69 81.899Z" fill="#FFCD38"/>
<path fill-rule="evenodd" clip-rule="evenodd" d="M179.983 140.258L204.15 81.899L221.331 40.6232L320.978 81.899L179.983 140.258Z" fill="#FFCD38"/>
<path fill-rule="evenodd" clip-rule="evenodd" d="M162.916 181.649L121.683 281.284L80.4492 181.649L179.982 140.258L162.916 181.649Z" fill="#FFCD38"/>
<path fill-rule="evenodd" clip-rule="evenodd" d="M561.391 181.649L520.158 281.284L478.924 181.649L461.858 140.258L561.391 181.649Z" fill="#FFCD38"/>
<path fill-rule="evenodd" clip-rule="evenodd" d="M461.858 422.309L478.924 381.033L520.158 281.284L561.391 381.033L461.858 422.309Z" fill="#FFCD38"/>
<path fill-rule="evenodd" clip-rule="evenodd" d="M179.982 422.309L80.4492 381.033L121.683 281.284L162.916 381.033L179.982 422.309Z" fill="#FFCD38"/>
<path fill-rule="evenodd" clip-rule="evenodd" d="M121.682 281.284L156.501 197.127L179.982 140.258L193.039 197.127L121.682 281.284Z" fill="#75BAFF"/>
<path fill-rule="evenodd" clip-rule="evenodd" d="M142.528 331.846L221.33 522.059L200.484 331.846L121.682 281.284L142.528 331.846Z" fill="#0080FF"/>
<path fill-rule="evenodd" clip-rule="evenodd" d="M448.801 197.127L520.158 281.284L485.339 197.127L461.859 140.258L448.801 197.127Z" fill="#0073E6"/>
<path fill-rule="evenodd" clip-rule="evenodd" d="M520.158 281.284L499.312 331.846L420.51 522.059L441.356 331.846L520.158 281.284Z" fill="#00366B"/>
<path fill-rule="evenodd" clip-rule="evenodd" d="M320.978 287.589V480.783L221.331 522.059L238.855 480.783L320.978 287.589Z" fill="#00366B"/>
<path fill-rule="evenodd" clip-rule="evenodd" d="M320.977 287.589L402.985 480.783L420.51 522.059L320.977 480.783V287.589Z" fill="#0054A8"/>
<path fill-rule="evenodd" clip-rule="evenodd" d="M294.864 197.127L320.978 210.083L193.04 197.127L179.983 140.258L294.864 197.127Z" fill="#61B0FF"/>
<path fill-rule="evenodd" clip-rule="evenodd" d="M346.977 197.127L320.977 210.083L448.8 197.127L461.858 140.258L346.977 197.127Z" fill="#75BAFF"/>
<path fill-rule="evenodd" clip-rule="evenodd" d="M213.199 156.769L320.978 210.083V156.769L179.983 140.258L213.199 156.769Z" fill="#47A3FF"/>
<path fill-rule="evenodd" clip-rule="evenodd" d="M320.977 156.769V210.083L428.642 156.769L461.858 140.258L320.977 156.769Z" fill="#ADD6FF"/>
<path fill-rule="evenodd" clip-rule="evenodd" d="M211.365 210.083L320.977 287.589V210.083L193.04 197.127L211.365 210.083Z" fill="#0078F0"/>
<path fill-rule="evenodd" clip-rule="evenodd" d="M320.977 210.083V287.589L430.474 210.083L448.8 197.127L320.977 210.083Z" fill="#8AC4FF"/>
<path fill-rule="evenodd" clip-rule="evenodd" d="M200.483 331.846L221.329 522.059L290.313 359.725L302.165 331.845L320.977 287.589L200.483 331.846Z" fill="#00478F"/>
<path fill-rule="evenodd" clip-rule="evenodd" d="M339.761 331.846L420.51 522.059L441.355 331.846L320.977 287.589L339.761 331.846Z" fill="#148AFF"/>
<path fill-rule="evenodd" clip-rule="evenodd" d="M320.977 287.589L441.355 331.846L443.761 287.589L448.8 197.127L320.977 287.589Z" fill="#4DA6FF"/>
<path fill-rule="evenodd" clip-rule="evenodd" d="M444.104 281.284L441.355 331.846L520.157 281.284L448.8 197.127L444.104 281.284Z" fill="#0059B3"/>
<path fill-rule="evenodd" clip-rule="evenodd" d="M198.079 287.589L200.484 331.846L320.977 287.589L193.04 197.127L198.079 287.589Z" fill="#0059B3"/>
<path fill-rule="evenodd" clip-rule="evenodd" d="M121.682 281.284L200.484 331.846L197.735 281.284L193.039 197.127L121.682 281.284Z" fill="#389CFF"/>
</svg>
