<svg width="16" height="16" viewBox="0 0 16 16" fill="none" xmlns="http://www.w3.org/2000/svg">
<path fill-rule="evenodd" clip-rule="evenodd" d="M11.4531 2.0892L12.1678 3.78628L8.00171 2.0892L10.9451 0.888916L11.4531 2.0892Z" fill="#FFCD38"/>
<path fill-rule="evenodd" clip-rule="evenodd" d="M3.83228 3.78628L4.54695 2.0892L5.05501 0.888916L8.00175 2.0892L3.83228 3.78628Z" fill="#FFCD38"/>
<path fill-rule="evenodd" clip-rule="evenodd" d="M3.32761 4.98987L2.10826 7.88724L0.888916 4.98987L3.83229 3.78625L3.32761 4.98987Z" fill="#FFCD38"/>
<path fill-rule="evenodd" clip-rule="evenodd" d="M15.1111 4.98987L13.8917 7.88724L12.6724 4.98987L12.1677 3.78625L15.1111 4.98987Z" fill="#FFCD38"/>
<path fill-rule="evenodd" clip-rule="evenodd" d="M12.1677 11.9882L12.6724 10.788L13.8917 7.88727L15.1111 10.788L12.1677 11.9882Z" fill="#FFCD38"/>
<path fill-rule="evenodd" clip-rule="evenodd" d="M3.83229 11.9882L0.888916 10.788L2.10826 7.88727L3.32761 10.788L3.83229 11.9882Z" fill="#FFCD38"/>
<path fill-rule="evenodd" clip-rule="evenodd" d="M2.10815 7.88724L3.13782 5.43998L3.83218 3.78625L4.2183 5.43998L2.10815 7.88724Z" fill="#75BAFF"/>
<path fill-rule="evenodd" clip-rule="evenodd" d="M2.7246 9.35761L5.05491 14.8889L4.43846 9.35761L2.10815 7.88727L2.7246 9.35761Z" fill="#0080FF"/>
<path fill-rule="evenodd" clip-rule="evenodd" d="M11.7816 5.43998L13.8918 7.88724L12.8621 5.43998L12.1677 3.78625L11.7816 5.43998Z" fill="#0073E6"/>
<path fill-rule="evenodd" clip-rule="evenodd" d="M13.8918 7.88727L13.2754 9.35761L10.9451 14.8889L11.5615 9.35761L13.8918 7.88727Z" fill="#00366B"/>
<path fill-rule="evenodd" clip-rule="evenodd" d="M8.00168 8.07062V13.6886L5.05493 14.8889L5.57315 13.6886L8.00168 8.07062Z" fill="#00366B"/>
<path fill-rule="evenodd" clip-rule="evenodd" d="M8.00171 8.07062L10.4269 13.6886L10.9451 14.8889L8.00171 13.6886V8.07062Z" fill="#0054A8"/>
<path fill-rule="evenodd" clip-rule="evenodd" d="M7.22951 5.43998L8.00175 5.81674L4.2184 5.43998L3.83228 3.78625L7.22951 5.43998Z" fill="#61B0FF"/>
<path fill-rule="evenodd" clip-rule="evenodd" d="M8.77058 5.43998L8.00171 5.81674L11.7817 5.43998L12.1678 3.78625L8.77058 5.43998Z" fill="#75BAFF"/>
<path fill-rule="evenodd" clip-rule="evenodd" d="M4.81452 4.26637L8.00175 5.81674V4.26637L3.83228 3.78625L4.81452 4.26637Z" fill="#47A3FF"/>
<path fill-rule="evenodd" clip-rule="evenodd" d="M8.00171 4.26637V5.81674L11.1856 4.26637L12.1678 3.78625L8.00171 4.26637Z" fill="#ADD6FF"/>
<path fill-rule="evenodd" clip-rule="evenodd" d="M4.76031 5.81676L8.00173 8.07062V5.81676L4.21838 5.44L4.76031 5.81676Z" fill="#0078F0"/>
<path fill-rule="evenodd" clip-rule="evenodd" d="M8.00171 5.81676V8.07062L11.2398 5.81676L11.7817 5.44L8.00171 5.81676Z" fill="#8AC4FF"/>
<path fill-rule="evenodd" clip-rule="evenodd" d="M4.43848 9.3576L5.05493 14.8889L7.09491 10.1683L7.44537 9.35756L8.00167 8.07062L4.43848 9.3576Z" fill="#00478F"/>
<path fill-rule="evenodd" clip-rule="evenodd" d="M8.55719 9.3576L10.9451 14.8889L11.5615 9.3576L8.00171 8.07062L8.55719 9.3576Z" fill="#148AFF"/>
<path fill-rule="evenodd" clip-rule="evenodd" d="M8.00171 8.07062L11.5615 9.3576L11.6326 8.07062L11.7817 5.44L8.00171 8.07062Z" fill="#4DA6FF"/>
<path fill-rule="evenodd" clip-rule="evenodd" d="M11.6429 7.88726L11.5616 9.3576L13.892 7.88726L11.7818 5.44L11.6429 7.88726Z" fill="#0059B3"/>
<path fill-rule="evenodd" clip-rule="evenodd" d="M4.36741 8.07062L4.43854 9.3576L8.00173 8.07062L4.21838 5.44L4.36741 8.07062Z" fill="#0059B3"/>
<path fill-rule="evenodd" clip-rule="evenodd" d="M2.10815 7.88726L4.43846 9.3576L4.35717 7.88726L4.2183 5.44L2.10815 7.88726Z" fill="#389CFF"/>
</svg>
