<svg width="48" height="48" viewBox="0 0 48 48" fill="none" xmlns="http://www.w3.org/2000/svg">
<path fill-rule="evenodd" clip-rule="evenodd" d="M34.3594 6.26755L36.5034 11.3588L24.0051 6.26755L32.8352 2.66669L34.3594 6.26755Z" fill="#FFCD38"/>
<path fill-rule="evenodd" clip-rule="evenodd" d="M11.4966 11.3588L13.6406 6.26755L15.1648 2.66669L24.005 6.26755L11.4966 11.3588Z" fill="#FFCD38"/>
<path fill-rule="evenodd" clip-rule="evenodd" d="M9.98271 14.9696L6.32467 23.6617L2.66663 14.9696L11.4967 11.3588L9.98271 14.9696Z" fill="#FFCD38"/>
<path fill-rule="evenodd" clip-rule="evenodd" d="M45.3333 14.9696L41.6752 23.6617L38.0172 14.9696L36.5032 11.3588L45.3333 14.9696Z" fill="#FFCD38"/>
<path fill-rule="evenodd" clip-rule="evenodd" d="M36.5032 35.9646L38.0172 32.3637L41.6752 23.6617L45.3333 32.3637L36.5032 35.9646Z" fill="#FFCD38"/>
<path fill-rule="evenodd" clip-rule="evenodd" d="M11.4967 35.9646L2.66663 32.3637L6.32467 23.6617L9.98271 32.3637L11.4967 35.9646Z" fill="#FFCD38"/>
<path fill-rule="evenodd" clip-rule="evenodd" d="M6.32434 23.6617L9.41334 16.3199L11.4964 11.3588L12.6548 16.3199L6.32434 23.6617Z" fill="#75BAFF"/>
<path fill-rule="evenodd" clip-rule="evenodd" d="M8.17369 28.0727L15.1646 44.6667L13.3153 28.0727L6.32434 23.6617L8.17369 28.0727Z" fill="#0080FF"/>
<path fill-rule="evenodd" clip-rule="evenodd" d="M35.3448 16.3199L41.6753 23.6617L38.5863 16.3199L36.5032 11.3588L35.3448 16.3199Z" fill="#0073E6"/>
<path fill-rule="evenodd" clip-rule="evenodd" d="M41.6752 23.6617L39.8259 28.0727L32.835 44.6667L34.6843 28.0727L41.6752 23.6617Z" fill="#00366B"/>
<path fill-rule="evenodd" clip-rule="evenodd" d="M24.005 24.2118V41.0658L15.1648 44.6667L16.7195 41.0658L24.005 24.2118Z" fill="#00366B"/>
<path fill-rule="evenodd" clip-rule="evenodd" d="M24.0051 24.2118L31.2806 41.0658L32.8352 44.6667L24.0051 41.0658V24.2118Z" fill="#0054A8"/>
<path fill-rule="evenodd" clip-rule="evenodd" d="M21.6883 16.3199L24.005 17.4502L12.655 16.3199L11.4966 11.3588L21.6883 16.3199Z" fill="#61B0FF"/>
<path fill-rule="evenodd" clip-rule="evenodd" d="M26.3117 16.3199L24.0051 17.4502L35.3451 16.3199L36.5034 11.3588L26.3117 16.3199Z" fill="#75BAFF"/>
<path fill-rule="evenodd" clip-rule="evenodd" d="M14.4433 12.7991L24.005 17.4502V12.7991L11.4966 11.3588L14.4433 12.7991Z" fill="#47A3FF"/>
<path fill-rule="evenodd" clip-rule="evenodd" d="M24.0051 12.7991V17.4502L33.5567 12.7991L36.5034 11.3588L24.0051 12.7991Z" fill="#ADD6FF"/>
<path fill-rule="evenodd" clip-rule="evenodd" d="M14.2807 17.4502L24.005 24.2118V17.4502L12.6549 16.3199L14.2807 17.4502Z" fill="#0078F0"/>
<path fill-rule="evenodd" clip-rule="evenodd" d="M24.0051 17.4502V24.2118L33.7193 17.4502L35.3451 16.3199L24.0051 17.4502Z" fill="#8AC4FF"/>
<path fill-rule="evenodd" clip-rule="evenodd" d="M13.3154 28.0727L15.1648 44.6667L21.2847 30.5048L22.3361 28.0726L24.005 24.2118L13.3154 28.0727Z" fill="#00478F"/>
<path fill-rule="evenodd" clip-rule="evenodd" d="M25.6716 28.0727L32.8352 44.6667L34.6846 28.0727L24.0051 24.2118L25.6716 28.0727Z" fill="#148AFF"/>
<path fill-rule="evenodd" clip-rule="evenodd" d="M24.0051 24.2118L34.6846 28.0727L34.8979 24.2118L35.3451 16.3199L24.0051 24.2118Z" fill="#4DA6FF"/>
<path fill-rule="evenodd" clip-rule="evenodd" d="M34.9287 23.6617L34.6848 28.0727L41.6758 23.6617L35.3453 16.3199L34.9287 23.6617Z" fill="#0059B3"/>
<path fill-rule="evenodd" clip-rule="evenodd" d="M13.102 24.2118L13.3154 28.0727L24.005 24.2118L12.6549 16.3199L13.102 24.2118Z" fill="#0059B3"/>
<path fill-rule="evenodd" clip-rule="evenodd" d="M6.32434 23.6617L13.3153 28.0727L13.0714 23.6617L12.6548 16.3199L6.32434 23.6617Z" fill="#389CFF"/>
</svg>
