<svg width="64" height="64" viewBox="0 0 64 64" fill="none" xmlns="http://www.w3.org/2000/svg">
<path fill-rule="evenodd" clip-rule="evenodd" d="M45.8126 8.35669L48.6712 15.145L32.0068 8.35669L43.7803 3.55554L45.8126 8.35669Z" fill="#FFCD38"/>
<path fill-rule="evenodd" clip-rule="evenodd" d="M15.3289 15.145L18.1875 8.35669L20.2198 3.55554L32.0068 8.35669L15.3289 15.145Z" fill="#FFCD38"/>
<path fill-rule="evenodd" clip-rule="evenodd" d="M13.3103 19.9594L8.43293 31.5489L3.55554 19.9594L15.329 15.145L13.3103 19.9594Z" fill="#FFCD38"/>
<path fill-rule="evenodd" clip-rule="evenodd" d="M60.4444 19.9594L55.567 31.5489L50.6896 19.9594L48.6709 15.145L60.4444 19.9594Z" fill="#FFCD38"/>
<path fill-rule="evenodd" clip-rule="evenodd" d="M48.6709 47.9528L50.6896 43.1516L55.567 31.5489L60.4444 43.1516L48.6709 47.9528Z" fill="#FFCD38"/>
<path fill-rule="evenodd" clip-rule="evenodd" d="M15.329 47.9528L3.55554 43.1516L8.43293 31.5489L13.3103 43.1516L15.329 47.9528Z" fill="#FFCD38"/>
<path fill-rule="evenodd" clip-rule="evenodd" d="M8.43262 31.5489L12.5513 21.7599L15.3287 15.145L16.8732 21.7599L8.43262 31.5489Z" fill="#75BAFF"/>
<path fill-rule="evenodd" clip-rule="evenodd" d="M10.8984 37.4303L20.2196 59.5556L17.7538 37.4303L8.43262 31.5489L10.8984 37.4303Z" fill="#0080FF"/>
<path fill-rule="evenodd" clip-rule="evenodd" d="M47.1265 21.7599L55.5671 31.5489L51.4484 21.7599L48.671 15.145L47.1265 21.7599Z" fill="#0073E6"/>
<path fill-rule="evenodd" clip-rule="evenodd" d="M55.567 31.5489L53.1012 37.4303L43.78 59.5556L46.2458 37.4303L55.567 31.5489Z" fill="#00366B"/>
<path fill-rule="evenodd" clip-rule="evenodd" d="M32.0067 32.2823V54.7544L20.2197 59.5556L22.2926 54.7544L32.0067 32.2823Z" fill="#00366B"/>
<path fill-rule="evenodd" clip-rule="evenodd" d="M32.0068 32.2823L41.7074 54.7544L43.7803 59.5556L32.0068 54.7544V32.2823Z" fill="#0054A8"/>
<path fill-rule="evenodd" clip-rule="evenodd" d="M28.9178 21.7599L32.0068 23.2669L16.8734 21.7599L15.3289 15.145L28.9178 21.7599Z" fill="#61B0FF"/>
<path fill-rule="evenodd" clip-rule="evenodd" d="M35.0823 21.7599L32.0068 23.2669L47.1267 21.7599L48.6712 15.145L35.0823 21.7599Z" fill="#75BAFF"/>
<path fill-rule="evenodd" clip-rule="evenodd" d="M19.2578 17.0654L32.0068 23.2669V17.0654L15.3289 15.145L19.2578 17.0654Z" fill="#47A3FF"/>
<path fill-rule="evenodd" clip-rule="evenodd" d="M32.0068 17.0654V23.2669L44.7422 17.0654L48.6712 15.145L32.0068 17.0654Z" fill="#ADD6FF"/>
<path fill-rule="evenodd" clip-rule="evenodd" d="M19.0409 23.2669L32.0066 32.2823V23.2669L16.8732 21.7598L19.0409 23.2669Z" fill="#0078F0"/>
<path fill-rule="evenodd" clip-rule="evenodd" d="M32.0068 23.2669V32.2823L44.959 23.2669L47.1267 21.7598L32.0068 23.2669Z" fill="#8AC4FF"/>
<path fill-rule="evenodd" clip-rule="evenodd" d="M17.754 37.4303L20.2198 59.5556L28.3797 40.673L29.7816 37.4301L32.0068 32.2823L17.754 37.4303Z" fill="#00478F"/>
<path fill-rule="evenodd" clip-rule="evenodd" d="M34.2288 37.4303L43.7803 59.5556L46.2461 37.4303L32.0068 32.2823L34.2288 37.4303Z" fill="#148AFF"/>
<path fill-rule="evenodd" clip-rule="evenodd" d="M32.0068 32.2823L46.2461 37.4302L46.5306 32.2823L47.1267 21.7598L32.0068 32.2823Z" fill="#4DA6FF"/>
<path fill-rule="evenodd" clip-rule="evenodd" d="M46.5716 31.5489L46.2465 37.4303L55.5677 31.5489L47.1271 21.7599L46.5716 31.5489Z" fill="#0059B3"/>
<path fill-rule="evenodd" clip-rule="evenodd" d="M17.4693 32.2823L17.7538 37.4302L32.0066 32.2823L16.8732 21.7598L17.4693 32.2823Z" fill="#0059B3"/>
<path fill-rule="evenodd" clip-rule="evenodd" d="M8.43262 31.5488L17.7538 37.4302L17.4287 31.5488L16.8732 21.7598L8.43262 31.5488Z" fill="#389CFF"/>
</svg>
