<svg width="32" height="32" viewBox="0 0 32 32" fill="none" xmlns="http://www.w3.org/2000/svg">
<path fill-rule="evenodd" clip-rule="evenodd" d="M22.9063 4.17834L24.3356 7.5725L16.0034 4.17834L21.8902 1.77777L22.9063 4.17834Z" fill="#FFCD38"/>
<path fill-rule="evenodd" clip-rule="evenodd" d="M7.66443 7.5725L9.09377 4.17834L10.1099 1.77777L16.0034 4.17834L7.66443 7.5725Z" fill="#FFCD38"/>
<path fill-rule="evenodd" clip-rule="evenodd" d="M6.65522 9.97975L4.21653 15.7745L1.77783 9.97975L7.66457 7.57251L6.65522 9.97975Z" fill="#FFCD38"/>
<path fill-rule="evenodd" clip-rule="evenodd" d="M30.2223 9.97975L27.7836 15.7745L25.3449 9.97975L24.3356 7.57251L30.2223 9.97975Z" fill="#FFCD38"/>
<path fill-rule="evenodd" clip-rule="evenodd" d="M24.3356 23.9764L25.3449 21.5758L27.7836 15.7744L30.2223 21.5758L24.3356 23.9764Z" fill="#FFCD38"/>
<path fill-rule="evenodd" clip-rule="evenodd" d="M7.66457 23.9764L1.77783 21.5758L4.21653 15.7744L6.65522 21.5758L7.66457 23.9764Z" fill="#FFCD38"/>
<path fill-rule="evenodd" clip-rule="evenodd" d="M4.21631 15.7745L6.27564 10.88L7.66436 7.57251L8.43661 10.88L4.21631 15.7745Z" fill="#75BAFF"/>
<path fill-rule="evenodd" clip-rule="evenodd" d="M5.44921 18.7151L10.1098 29.7777L8.87692 18.7151L4.21631 15.7744L5.44921 18.7151Z" fill="#0080FF"/>
<path fill-rule="evenodd" clip-rule="evenodd" d="M23.5634 10.88L27.7837 15.7745L25.7243 10.88L24.3356 7.57251L23.5634 10.88Z" fill="#0073E6"/>
<path fill-rule="evenodd" clip-rule="evenodd" d="M27.7836 15.7744L26.5507 18.7151L21.8901 29.7777L23.123 18.7151L27.7836 15.7744Z" fill="#00366B"/>
<path fill-rule="evenodd" clip-rule="evenodd" d="M16.0034 16.1412V27.3772L10.1099 29.7778L11.1463 27.3772L16.0034 16.1412Z" fill="#00366B"/>
<path fill-rule="evenodd" clip-rule="evenodd" d="M16.0034 16.1412L20.8537 27.3772L21.8902 29.7778L16.0034 27.3772V16.1412Z" fill="#0054A8"/>
<path fill-rule="evenodd" clip-rule="evenodd" d="M14.4589 10.88L16.0034 11.6335L8.43668 10.88L7.66443 7.57251L14.4589 10.88Z" fill="#61B0FF"/>
<path fill-rule="evenodd" clip-rule="evenodd" d="M17.5412 10.88L16.0034 11.6335L23.5634 10.88L24.3356 7.57251L17.5412 10.88Z" fill="#75BAFF"/>
<path fill-rule="evenodd" clip-rule="evenodd" d="M9.62892 8.53274L16.0034 11.6335V8.53274L7.66443 7.57251L9.62892 8.53274Z" fill="#47A3FF"/>
<path fill-rule="evenodd" clip-rule="evenodd" d="M16.0034 8.53274V11.6335L22.3711 8.53274L24.3356 7.57251L16.0034 8.53274Z" fill="#ADD6FF"/>
<path fill-rule="evenodd" clip-rule="evenodd" d="M9.5205 11.6335L16.0033 16.1412V11.6335L8.43665 10.8799L9.5205 11.6335Z" fill="#0078F0"/>
<path fill-rule="evenodd" clip-rule="evenodd" d="M16.0034 11.6335V16.1412L22.4795 11.6335L23.5634 10.8799L16.0034 11.6335Z" fill="#8AC4FF"/>
<path fill-rule="evenodd" clip-rule="evenodd" d="M8.87708 18.7151L10.11 29.7778L14.1899 20.3365L14.8909 18.7151L16.0035 16.1412L8.87708 18.7151Z" fill="#00478F"/>
<path fill-rule="evenodd" clip-rule="evenodd" d="M17.1144 18.7151L21.8902 29.7778L23.123 18.7151L16.0034 16.1412L17.1144 18.7151Z" fill="#148AFF"/>
<path fill-rule="evenodd" clip-rule="evenodd" d="M16.0034 16.1412L23.123 18.7151L23.2653 16.1412L23.5634 10.8799L16.0034 16.1412Z" fill="#4DA6FF"/>
<path fill-rule="evenodd" clip-rule="evenodd" d="M23.2859 15.7745L23.1233 18.7151L27.7839 15.7745L23.5636 10.8799L23.2859 15.7745Z" fill="#0059B3"/>
<path fill-rule="evenodd" clip-rule="evenodd" d="M8.7347 16.1412L8.87695 18.7151L16.0033 16.1412L8.43665 10.8799L8.7347 16.1412Z" fill="#0059B3"/>
<path fill-rule="evenodd" clip-rule="evenodd" d="M4.21631 15.7745L8.87692 18.7151L8.71434 15.7745L8.43661 10.8799L4.21631 15.7745Z" fill="#389CFF"/>
</svg>
