<svg viewBox="0 0 64 64" fill="none" xmlns="http://www.w3.org/2000/svg">
<rect width="64" height="64" rx="8" fill="#D0E8FF"/>
<path d="M30.9246 36.7535C31.1279 36.5499 31.1279 36.2203 30.9246 36.0166C30.7211 35.8136 30.3914 35.8136 30.1877 36.0166C29.9846 36.2203 29.9846 36.5499 30.1877 36.7535C30.3914 36.9566 30.7211 36.9566 30.9246 36.7535Z" fill="#083766"/>
<path d="M28.458 24.3943C28.458 27.5525 31.0282 30.122 34.1874 30.122C37.3465 30.122 39.9167 27.5525 39.9167 24.3943C39.9167 21.2361 37.3465 18.6667 34.1874 18.6667C31.0282 18.6667 28.458 21.2361 28.458 24.3943ZM38.8751 24.3943C38.8751 26.9783 36.7722 29.0806 34.1874 29.0806C31.6025 29.0806 29.4996 26.9783 29.4996 24.3943C29.4996 21.8105 31.6025 19.7082 34.1874 19.7082C36.7722 19.7082 38.8751 21.8105 38.8751 24.3943Z" fill="#083766"/>
<path d="M24.6654 45.1794C24.8672 45.3829 25.1959 45.3851 25.4004 45.1837L27.9257 42.6967C28.3547 42.2679 28.4851 41.6329 28.2965 41.0809L28.8396 40.5572C29.1321 40.2749 29.5171 40.1192 29.9242 40.1192H36.8483C38.0767 40.1192 39.2378 39.6476 40.118 38.7913C40.1542 38.7561 39.843 39.1225 44.8417 33.15C45.5831 32.2731 45.4722 30.9564 44.5943 30.2144C43.7218 29.4793 42.4148 29.5849 41.6714 30.4468L38.5979 33.6047C38.2098 33.1272 37.618 32.8296 36.9786 32.8296H31.1705C30.344 32.4839 29.4671 32.3089 28.5622 32.3089C26.0541 32.3089 23.8641 33.467 22.6888 35.6382C22.1937 35.5444 21.6715 35.6942 21.2958 36.0697L18.818 38.5541C18.6157 38.7569 18.6153 39.0851 18.8172 39.2885L24.6654 45.1794ZM28.562 33.3502C29.3598 33.3502 30.1311 33.5107 30.855 33.8273C30.921 33.8562 30.992 33.871 31.0638 33.871H36.9786C37.5433 33.871 38.0204 34.3314 38.0204 34.9123C38.0204 35.4866 37.5531 35.9538 36.9786 35.9538H32.729C32.4414 35.9538 32.2082 36.1869 32.2082 36.4744C32.2082 36.7621 32.4414 36.995 32.729 36.995H36.9786C38.1274 36.995 39.0619 36.0608 39.0619 34.9123C39.0619 34.8207 39.0554 34.73 39.0436 34.6401C42.0168 31.5849 42.436 31.1556 42.4539 31.1342C42.8251 30.6962 43.4841 30.6406 43.9225 31.0101C44.3612 31.381 44.4168 32.0394 44.0446 32.4798L39.3729 38.0629C38.6907 38.7176 37.7951 39.078 36.8483 39.078H29.9242C29.2456 39.078 28.6034 39.3374 28.1161 39.8079L27.6735 40.235L23.593 36.156C24.5467 34.3675 26.3362 33.3502 28.562 33.3502ZM22.0329 36.8056C22.2047 36.6339 22.4684 36.603 22.6778 36.7324C22.768 36.7873 22.5091 36.5517 27.1891 41.2237C27.3973 41.4319 27.3861 41.7635 27.192 41.9576L25.0392 44.0778L19.9214 38.9225L22.0329 36.8056Z" fill="#083766"/>
<path d="M33.5624 21.2703V21.8805C32.9561 22.0953 32.5206 22.6741 32.5206 23.353C32.5206 24.2142 33.2215 24.9151 34.0832 24.9151C34.3703 24.9151 34.604 25.1487 34.604 25.4358C34.604 25.7228 34.3703 25.9564 34.0832 25.9564C33.8607 25.9564 33.6204 25.8166 33.4069 25.5625C33.2217 25.3424 32.8932 25.3141 32.673 25.499C32.4528 25.6842 32.4243 26.0125 32.6095 26.2327C32.8879 26.5637 33.2154 26.7944 33.5624 26.9108V27.5185C33.5624 27.8062 33.7956 28.0391 34.0832 28.0391C34.3707 28.0391 34.604 27.8062 34.604 27.5185V26.9083C35.2102 26.6933 35.6458 26.1145 35.6458 25.4358C35.6458 24.5743 34.9449 23.8737 34.0832 23.8737C33.796 23.8737 33.5624 23.6401 33.5624 23.353C33.5624 23.066 33.796 22.8322 34.0832 22.8322C34.2678 22.8322 34.4625 22.9264 34.6465 23.1044C34.8533 23.3044 35.183 23.2989 35.383 23.0924C35.5831 22.8857 35.5776 22.5561 35.371 22.3561C35.1066 22.1004 34.8421 21.9557 34.604 21.8768V21.2703C34.604 20.9826 34.3707 20.7495 34.0832 20.7495C33.7956 20.7495 33.5624 20.9826 33.5624 21.2703Z" fill="#083766"/>
</svg>
