<svg viewBox="0 0 64 64" fill="none" xmlns="http://www.w3.org/2000/svg">
<rect width="64" height="64" rx="8" fill="#D0E8FF"/>
<path d="M26.0899 24.3733C23.8762 24.3535 21.6595 25.874 20.584 28.1741C19.5569 30.4924 19.5424 33.7181 20.9151 37.5442C22.3032 41.4134 23.0444 43.8089 23.7793 45.3187C24.4069 46.6355 25.3988 47.4964 26.7657 47.5081C27.8535 47.5081 28.6522 46.9342 29.1319 46.18C29.6671 45.2542 29.9136 44.2666 30.1758 43.2786C30.3467 42.6598 29.3852 42.2948 29.1787 43.052C28.9569 43.9524 28.7532 44.8479 28.2881 45.6428C27.9309 46.2046 27.5393 46.5081 26.7657 46.5081C25.6322 46.4986 25.068 45.6732 24.6778 44.8811C24.0119 43.5131 23.2504 41.0916 21.8565 37.2063C20.5452 33.5513 20.6101 30.5837 21.4981 28.5794C22.8089 25.7713 26.7176 24.2114 29.0703 26.8948C29.2582 27.1101 29.5923 27.4585 29.8037 27.678C28.8505 27.5571 28.2979 27.3794 28.002 27.3001C27.3314 27.0562 27.1047 28.0742 27.6221 28.2258C29.0516 28.752 32.3298 29.2652 33.8379 28.0169C34.4511 27.5218 34.6008 27.2718 34.9297 26.8948C35.7608 25.8248 36.8635 25.4279 37.9805 25.4876C39.8422 25.587 41.7446 26.9535 42.502 28.5794C43.39 30.5837 43.4549 33.5513 42.1436 37.2063C40.7497 41.0916 39.9882 43.5131 39.3223 44.8811C38.8757 45.866 38.1796 46.5017 37.2344 46.5081C34.9856 46.5081 34.8961 42.5364 34.0694 40.8528C32.9452 38.9328 30.7305 39.1414 29.9307 40.8528C29.6806 41.547 30.6147 41.7679 30.8614 41.2327C31.3966 40.1924 32.7455 40.3734 33.1846 41.3196C34.1496 43.2909 33.9736 47.5081 37.2344 47.5081C38.8611 47.5081 39.6528 46.4721 40.2207 45.3187C40.9556 43.8089 41.6969 41.4134 43.085 37.5442C44.4576 33.7181 44.4432 30.4924 43.416 28.1741C41.7212 24.6347 36.7736 22.8775 34.1758 26.2366C32.8996 28.0739 31.1221 27.7512 29.8243 26.2366C28.7451 24.9514 27.4181 24.3852 26.0899 24.3733Z" fill="#083766"/>
<path d="M30.3246 17.6671C29.8369 18.1472 30.5823 18.8659 31.0443 18.361L31.6792 17.7003C31.9594 17.3911 32.1464 17.4906 32.3398 17.7154L34.0635 19.5092C34.1839 19.6332 34.3597 19.6862 34.5286 19.6495L35.7134 19.3977C36.0975 19.3204 36.2846 19.6495 36.1931 19.9074L35.5989 22.4984C33.1998 22.4984 30.8007 22.4984 28.4016 22.4984L27.7585 19.7947C27.6975 19.4378 27.9824 19.315 28.2872 19.3977L29.472 19.6487C30.1241 19.7889 30.3344 18.8108 29.6824 18.6706L28.505 18.4233C27.3938 18.1843 26.5603 19.0142 26.8034 20.003L27.5158 23.1071C27.5667 23.3354 27.7691 23.498 28.003 23.4983H35.9976C36.2315 23.498 36.4339 23.3355 36.4848 23.1071L37.1639 20.147C37.3411 19.0376 36.4838 18.1724 35.4772 18.427L34.5913 18.6152L33.0854 17.0466C32.3399 16.3153 31.6004 16.317 30.9583 17.0065C30.7417 17.2264 30.5236 17.4574 30.3246 17.6671Z" fill="#083766"/>
</svg>
