<svg width="24" height="24" viewBox="0 0 24 24" fill="none" xmlns="http://www.w3.org/2000/svg">
<path fill-rule="evenodd" clip-rule="evenodd" d="M10.9199 10.9197V4.07996C10.92 3.48353 11.4035 3 12.0001 3C12.5966 3 13.0802 3.48353 13.0803 4.07996V10.9197H19.9199C20.5166 10.9197 21 11.4032 21 11.9998C21 12.5965 20.5165 13.08 19.9199 13.08H13.0803V19.9199C13.0803 20.5166 12.5968 21 12.0002 21C11.4035 21 10.9199 20.5165 10.9199 19.9199V13.08H4.07996C3.48353 13.08 3 12.5965 3 11.9999C3 11.4034 3.48353 10.9198 4.07996 10.9197H10.9199Z" fill="#4D5661"/>
</svg>
